<svg width="52" height="51" viewBox="0 0 52 51" fill="none" xmlns="http://www.w3.org/2000/svg">
<g filter="url(#filter0_d)">
<ellipse cx="24.1706" cy="22.5" rx="15.1346" ry="15" fill="white"/>
<path d="M24.1706 7.0625C15.5821 7.0625 8.59454 13.9879 8.59454 22.5C8.59454 31.0121 15.5821 37.9375 24.1706 37.9375C32.7592 37.9375 39.7467 31.0121 39.7467 22.5C39.7467 13.9879 32.7592 7.0625 24.1706 7.0625ZM24.1706 32C22.6055 32 21.3609 31.3424 21.1939 29.953C21.1895 29.9115 21.194 29.8695 21.207 29.8298C21.2201 29.7901 21.2415 29.7536 21.2697 29.7227C21.298 29.6917 21.3325 29.667 21.3711 29.6502C21.4097 29.6333 21.4514 29.6248 21.4935 29.625H26.844C26.8866 29.6247 26.9287 29.6334 26.9676 29.6505C27.0065 29.6676 27.0413 29.6927 27.0696 29.7241C27.098 29.7556 27.1192 29.7927 27.132 29.8329C27.1447 29.8732 27.1487 29.9156 27.1436 29.9575C26.9526 31.3209 25.7192 32 24.1706 32ZM31.5094 28.4375H16.8319C15.9453 28.4375 15.484 27.3242 15.9939 26.7305C17.2168 25.2951 18.081 24.6917 18.081 20.7336C18.081 17.1065 20.0085 15.8196 21.6006 15.1917C21.7101 15.1464 21.8089 15.0789 21.8906 14.9935C21.9722 14.9082 22.0349 14.8068 22.0746 14.6959C22.3509 13.7867 23.1327 13 24.1706 13C25.2085 13 25.9888 13.7867 26.2674 14.6966C26.3074 14.8075 26.3702 14.9088 26.452 14.9942C26.5337 15.0796 26.6326 15.1471 26.7422 15.1924C28.3305 15.8188 30.2618 17.108 30.2618 20.7343C30.2618 24.6924 31.1252 25.2958 32.3481 26.7312C32.8528 27.3242 32.3907 28.4375 31.5094 28.4375Z" fill="#5855D6"/>
<ellipse cx="30.729" cy="17" rx="3.53142" ry="3.5" fill="#FF2C55"/>
</g>
<defs>
<filter id="filter0_d" x="-2.99994" y="-3.5" width="58.3411" height="58" filterUnits="userSpaceOnUse" color-interpolation-filters="sRGB">
<feFlood flood-opacity="0" result="BackgroundImageFix"/>
<feColorMatrix in="SourceAlpha" type="matrix" values="0 0 0 0 0 0 0 0 0 0 0 0 0 0 0 0 0 0 127 0" result="hardAlpha"/>
<feOffset dx="2" dy="3"/>
<feGaussianBlur stdDeviation="5"/>
<feColorMatrix type="matrix" values="0 0 0 0 0 0 0 0 0 0 0 0 0 0 0 0 0 0 0.25 0"/>
<feBlend mode="normal" in2="BackgroundImageFix" result="effect1_dropShadow"/>
<feBlend mode="normal" in="SourceGraphic" in2="effect1_dropShadow" result="shape"/>
</filter>
</defs>
</svg>
