<svg width="53" height="75" viewBox="0 0 53 75" fill="none" xmlns="http://www.w3.org/2000/svg">
<path d="M5.60904 68.1172C7.08365 68.1172 8.21158 67.2432 8.48013 65.8955L8.4899 65.8467H7.60123L7.58658 65.8906C7.27896 66.8184 6.59537 67.3066 5.60904 67.3066C4.20767 67.3066 3.29459 66.1885 3.29459 64.4746V64.4697C3.29459 62.7559 4.20279 61.6475 5.60904 61.6475C6.60025 61.6475 7.29361 62.1455 7.56705 63L7.60123 63.1074H8.4899L8.48013 63.0586C8.21158 61.7256 7.07388 60.8369 5.60904 60.8369C3.64615 60.8369 2.39127 62.2529 2.39127 64.4697V64.4746C2.39127 66.6914 3.65103 68.1172 5.60904 68.1172ZM11.5026 68.0977C12.904 68.0977 13.8512 67.082 13.8512 65.4609V65.4512C13.8512 63.8301 12.8991 62.8242 11.4977 62.8242C10.0963 62.8242 9.14908 63.835 9.14908 65.4512V65.4609C9.14908 67.0771 10.0915 68.0977 11.5026 68.0977ZM11.5075 67.3457C10.609 67.3457 10.0182 66.6572 10.0182 65.4609V65.4512C10.0182 64.2646 10.6139 63.5762 11.4977 63.5762C12.3961 63.5762 12.9821 64.2598 12.9821 65.4512V65.4609C12.9821 66.6523 12.401 67.3457 11.5075 67.3457ZM14.7106 68H15.5602V64.8164C15.5602 64.1084 16.0485 63.5762 16.7223 63.5762C17.3522 63.5762 17.7624 63.9814 17.7624 64.5967V68H18.612V64.7725C18.612 64.0791 19.0856 63.5762 19.7594 63.5762C20.4284 63.5762 20.8141 63.9912 20.8141 64.6895V68H21.6637V64.4941C21.6637 63.4834 21.0143 62.8242 20.0085 62.8242C19.2956 62.8242 18.6999 63.1904 18.4167 63.8008H18.3971C18.1774 63.1807 17.6647 62.8242 16.9713 62.8242C16.317 62.8242 15.8092 63.1611 15.5797 63.6641H15.5602V62.9219H14.7106V68ZM22.7477 69.709H23.5973V67.1504H23.6169C23.9342 67.7363 24.5251 68.0977 25.2428 68.0977C26.5172 68.0977 27.3864 67.0674 27.3864 65.4658V65.4609C27.3864 63.8594 26.527 62.8242 25.2282 62.8242C24.5006 62.8242 23.9342 63.1904 23.6169 63.7812H23.5973V62.9219H22.7477V69.709ZM25.0622 67.3457C24.2077 67.3457 23.5924 66.5986 23.5924 65.4658V65.4609C23.5924 64.3232 24.2028 63.5762 25.0622 63.5762C25.9606 63.5762 26.5172 64.2939 26.5172 65.4609V65.4658C26.5172 66.623 25.9606 67.3457 25.0622 67.3457ZM28.2897 68H29.1393V60.9541H28.2897V68ZM32.3766 68.0977C33.485 68.0977 34.3151 67.4336 34.4811 66.5938L34.4909 66.5449H33.6559L33.6413 66.5889C33.4948 67.0234 33.0407 67.3457 32.3961 67.3457C31.4928 67.3457 30.9167 66.7354 30.8971 65.6904H34.5544V65.3779C34.5544 63.8545 33.7096 62.8242 32.3229 62.8242C30.9362 62.8242 30.0378 63.9033 30.0378 65.4756V65.4805C30.0378 67.0771 30.9167 68.0977 32.3766 68.0977ZM32.318 63.5762C33.0602 63.5762 33.6071 64.04 33.6901 65.0264H30.9118C31.0045 64.0791 31.5807 63.5762 32.318 63.5762ZM37.0641 68.0977C37.2301 68.0977 37.4108 68.0781 37.5182 68.0635V67.375C37.445 67.3799 37.3473 67.3945 37.2448 67.3945C36.7907 67.3945 36.5514 67.2432 36.5514 66.7012V63.625H37.5182V62.9219H36.5514V61.5498H35.6725V62.9219H34.9303V63.625H35.6725V66.7061C35.6725 67.6777 36.1315 68.0977 37.0641 68.0977ZM38.9098 62.0625C39.2077 62.0625 39.442 61.8232 39.442 61.5303C39.442 61.2324 39.2077 60.998 38.9098 60.998C38.6169 60.998 38.3776 61.2324 38.3776 61.5303C38.3776 61.8232 38.6169 62.0625 38.9098 62.0625ZM38.485 68H39.3346V62.9219H38.485V68ZM42.5963 68.0977C43.9977 68.0977 44.945 67.082 44.945 65.4609V65.4512C44.945 63.8301 43.9928 62.8242 42.5915 62.8242C41.1901 62.8242 40.2428 63.835 40.2428 65.4512V65.4609C40.2428 67.0771 41.1852 68.0977 42.5963 68.0977ZM42.6012 67.3457C41.7028 67.3457 41.112 66.6572 41.112 65.4609V65.4512C41.112 64.2646 41.7077 63.5762 42.5915 63.5762C43.4899 63.5762 44.0758 64.2598 44.0758 65.4512V65.4609C44.0758 66.6523 43.4948 67.3457 42.6012 67.3457ZM45.8044 68H46.654V65.0117C46.654 64.1475 47.1764 63.5762 47.9772 63.5762C48.7585 63.5762 49.1442 64.0303 49.1442 64.8555V68H49.9938V64.7041C49.9938 63.5469 49.3493 62.8242 48.236 62.8242C47.4645 62.8242 46.9469 63.1709 46.6735 63.6445H46.654V62.9219H45.8044V68Z" fill="#9592A6"/>
<ellipse cx="26.7491" cy="26" rx="21.8038" ry="22" stroke="#EBEBEB" stroke-width="8"/>
<path d="M26.749 4C31.0614 4 35.277 5.29028 38.8626 7.70767C42.4482 10.1251 45.2429 13.561 46.8931 17.581C48.5434 21.6009 48.9752 26.0244 48.1339 30.292C47.2926 34.5596 45.216 38.4796 42.1667 41.5563" stroke="#5855D6" stroke-width="8" stroke-linecap="round"/>
<path d="M17.8613 30V28.248H15.5813C15.2453 28.248 14.9453 28.172 14.6813 28.02C14.4173 27.868 14.2053 27.668 14.0453 27.42C13.8933 27.164 13.8173 26.884 13.8173 26.58C13.8173 26.42 13.8333 26.264 13.8653 26.112C13.9053 25.952 13.9613 25.8 14.0333 25.656L16.1333 21.6H18.3053L15.8813 26.208C15.8413 26.288 15.8213 26.352 15.8213 26.4C15.8213 26.512 15.8853 26.568 16.0133 26.568H17.8613V23.928H19.8053V26.568H20.8733V28.248H19.8053V30H17.8613ZM21.6809 30V28.284H24.5489C24.8529 28.284 25.1049 28.18 25.3049 27.972C25.5129 27.764 25.6169 27.516 25.6169 27.228C25.6169 26.932 25.5129 26.684 25.3049 26.484C25.1049 26.284 24.8529 26.184 24.5489 26.184H21.9569V21.6H27.0329V23.316H23.8409V24.54H24.7769C25.3049 24.54 25.7769 24.66 26.1929 24.9C26.6169 25.14 26.9489 25.468 27.1889 25.884C27.4369 26.292 27.5609 26.748 27.5609 27.252C27.5609 27.748 27.4369 28.208 27.1889 28.632C26.9489 29.048 26.6169 29.38 26.1929 29.628C25.7769 29.876 25.3049 30 24.7769 30H21.6809ZM30.6274 26.124C30.2274 26.124 29.8674 26.044 29.5474 25.884C29.2354 25.716 28.9874 25.492 28.8034 25.212C28.6194 24.924 28.5274 24.604 28.5274 24.252V23.316C28.5274 22.972 28.6194 22.66 28.8034 22.38C28.9874 22.092 29.2354 21.868 29.5474 21.708C29.8674 21.54 30.2274 21.456 30.6274 21.456C31.0194 21.456 31.3754 21.54 31.6954 21.708C32.0154 21.868 32.2674 22.092 32.4514 22.38C32.6354 22.66 32.7274 22.972 32.7274 23.316V24.252C32.7274 24.604 32.6314 24.924 32.4394 25.212C32.2554 25.492 32.0034 25.716 31.6834 25.884C31.3714 26.044 31.0194 26.124 30.6274 26.124ZM30.0394 30L35.6314 21.6H37.0354L31.4434 30H30.0394ZM30.6394 24.888C30.8314 24.888 31.0034 24.82 31.1554 24.684C31.3074 24.54 31.3834 24.36 31.3834 24.144V23.424C31.3834 23.208 31.3074 23.028 31.1554 22.884C31.0034 22.74 30.8314 22.668 30.6394 22.668C30.4314 22.668 30.2514 22.74 30.0994 22.884C29.9554 23.028 29.8834 23.208 29.8834 23.424V24.144C29.8834 24.36 29.9554 24.54 30.0994 24.684C30.2514 24.82 30.4314 24.888 30.6394 24.888ZM36.4714 30.144C36.0714 30.144 35.7114 30.064 35.3914 29.904C35.0714 29.736 34.8194 29.512 34.6354 29.232C34.4514 28.944 34.3594 28.624 34.3594 28.272V27.336C34.3594 26.992 34.4514 26.68 34.6354 26.4C34.8194 26.112 35.0714 25.888 35.3914 25.728C35.7114 25.56 36.0714 25.476 36.4714 25.476C36.8634 25.476 37.2154 25.56 37.5274 25.728C37.8474 25.888 38.0994 26.112 38.2834 26.4C38.4754 26.68 38.5714 26.992 38.5714 27.336V28.272C38.5714 28.624 38.4754 28.944 38.2834 29.232C38.0994 29.512 37.8474 29.736 37.5274 29.904C37.2074 30.064 36.8554 30.144 36.4714 30.144ZM36.4714 28.908C36.6714 28.908 36.8434 28.84 36.9874 28.704C37.1394 28.56 37.2154 28.38 37.2154 28.164V27.444C37.2154 27.228 37.1394 27.048 36.9874 26.904C36.8434 26.76 36.6714 26.688 36.4714 26.688C36.2634 26.688 36.0834 26.76 35.9314 26.904C35.7874 27.048 35.7154 27.228 35.7154 27.444V28.164C35.7154 28.38 35.7874 28.56 35.9314 28.704C36.0834 28.84 36.2634 28.908 36.4714 28.908Z" fill="#9592A6"/>
</svg>
