<svg width="17" height="17" viewBox="0 0 17 17" fill="none" xmlns="http://www.w3.org/2000/svg">
<path d="M7.08333 9.20833H2.83333C2.64547 9.20833 2.4653 9.28296 2.33247 9.4158C2.19963 9.54864 2.125 9.7288 2.125 9.91667V14.1667C2.125 14.3545 2.19963 14.5347 2.33247 14.6675C2.4653 14.8004 2.64547 14.875 2.83333 14.875H7.08333C7.27119 14.875 7.45136 14.8004 7.5842 14.6675C7.71704 14.5347 7.79167 14.3545 7.79167 14.1667V9.91667C7.79167 9.7288 7.71704 9.54864 7.5842 9.4158C7.45136 9.28296 7.27119 9.20833 7.08333 9.20833ZM6.375 13.4583H3.54167V10.625H6.375V13.4583ZM14.1667 2.125H9.91667C9.7288 2.125 9.54864 2.19963 9.4158 2.33247C9.28296 2.4653 9.20833 2.64547 9.20833 2.83333V7.08333C9.20833 7.27119 9.28296 7.45136 9.4158 7.5842C9.54864 7.71704 9.7288 7.79167 9.91667 7.79167H14.1667C14.3545 7.79167 14.5347 7.71704 14.6675 7.5842C14.8004 7.45136 14.875 7.27119 14.875 7.08333V2.83333C14.875 2.64547 14.8004 2.4653 14.6675 2.33247C14.5347 2.19963 14.3545 2.125 14.1667 2.125ZM13.4583 6.375H10.625V3.54167H13.4583V6.375ZM14.1667 11.3333H12.75V9.91667C12.75 9.7288 12.6754 9.54864 12.5425 9.4158C12.4097 9.28296 12.2295 9.20833 12.0417 9.20833C11.8538 9.20833 11.6736 9.28296 11.5408 9.4158C11.408 9.54864 11.3333 9.7288 11.3333 9.91667V11.3333H9.91667C9.7288 11.3333 9.54864 11.408 9.4158 11.5408C9.28296 11.6736 9.20833 11.8538 9.20833 12.0417C9.20833 12.2295 9.28296 12.4097 9.4158 12.5425C9.54864 12.6754 9.7288 12.75 9.91667 12.75H11.3333V14.1667C11.3333 14.3545 11.408 14.5347 11.5408 14.6675C11.6736 14.8004 11.8538 14.875 12.0417 14.875C12.2295 14.875 12.4097 14.8004 12.5425 14.6675C12.6754 14.5347 12.75 14.3545 12.75 14.1667V12.75H14.1667C14.3545 12.75 14.5347 12.6754 14.6675 12.5425C14.8004 12.4097 14.875 12.2295 14.875 12.0417C14.875 11.8538 14.8004 11.6736 14.6675 11.5408C14.5347 11.408 14.3545 11.3333 14.1667 11.3333ZM7.08333 2.125H2.83333C2.64547 2.125 2.4653 2.19963 2.33247 2.33247C2.19963 2.4653 2.125 2.64547 2.125 2.83333V7.08333C2.125 7.27119 2.19963 7.45136 2.33247 7.5842C2.4653 7.71704 2.64547 7.79167 2.83333 7.79167H7.08333C7.27119 7.79167 7.45136 7.71704 7.5842 7.5842C7.71704 7.45136 7.79167 7.27119 7.79167 7.08333V2.83333C7.79167 2.64547 7.71704 2.4653 7.5842 2.33247C7.45136 2.19963 7.27119 2.125 7.08333 2.125ZM6.375 6.375H3.54167V3.54167H6.375V6.375Z" fill="#5855D6"/>
</svg>
