<svg width="20" height="19" viewBox="0 0 20 19" fill="none" xmlns="http://www.w3.org/2000/svg">
<path d="M5.62867 10.8913C5.7852 11.0438 5.85075 11.2669 5.80155 11.4798L4.62115 16.5876L4.62045 16.5906C4.61282 16.6229 4.61511 16.6566 4.62701 16.6876C4.63891 16.7185 4.6599 16.7452 4.68731 16.7641C4.71473 16.7831 4.74727 16.7934 4.78068 16.7935C4.81409 16.7937 4.84675 16.7839 4.87439 16.7653L4.87697 16.7635L4.87697 16.7635L9.19059 13.8898C9.40045 13.75 9.67378 13.75 9.88364 13.8898L14.1963 16.7629C14.1964 16.7629 14.1965 16.763 14.1966 16.7631C14.2251 16.7819 14.2588 16.7916 14.2931 16.7909C14.3275 16.7901 14.3608 16.7789 14.3885 16.7587C14.4162 16.7385 14.437 16.7103 14.4482 16.6781C14.4593 16.646 14.4604 16.6113 14.4512 16.5786C14.4512 16.5784 14.4511 16.5783 14.4511 16.5781L13.0027 11.5133C12.937 11.2835 13.008 11.0365 13.1856 10.8767L16.779 7.64523L5.62867 10.8913ZM5.62867 10.8913L2.29028 7.63994M5.62867 10.8913L2.29028 7.63994M8.81541 2.04962L6.86101 6.37292L2.34458 6.73154C2.19284 6.74356 2.04777 6.799 1.92673 6.89125C1.80569 6.98349 1.71381 7.10863 1.66208 7.25169C1.61035 7.39475 1.60096 7.54968 1.63503 7.69793C1.6691 7.84619 1.74519 7.98149 1.8542 8.08767L8.81541 2.04962ZM8.81541 2.04962C8.87772 1.91041 8.97903 1.7922 9.10709 1.70926C9.23516 1.62631 9.3845 1.58217 9.53712 1.58217C9.68973 1.58217 9.83908 1.62631 9.96714 1.70926C10.0952 1.7922 10.1965 1.91041 10.2588 2.04962M8.81541 2.04962H10.2588M2.29028 7.63994C2.29027 7.63993 2.29027 7.63993 2.29027 7.63993C2.26729 7.61755 2.2513 7.58908 2.24415 7.55795C2.237 7.52682 2.23897 7.49428 2.24983 7.46423C2.26071 7.43416 2.28004 7.4078 2.30558 7.38834C2.33112 7.36887 2.36178 7.35714 2.39391 7.35459L2.39405 7.35458L6.91048 6.99596C7.13748 6.97793 7.33672 6.83787 7.43052 6.63037L9.38492 2.30708L9.38492 2.30708L9.38586 2.30499C9.39886 2.27595 9.42002 2.25122 9.44686 2.23383C9.4737 2.21645 9.50505 2.20717 9.53712 2.20717C9.56918 2.20717 9.60053 2.21645 9.62737 2.23383C9.65421 2.25122 9.67537 2.27595 9.68837 2.30499L9.68931 2.30708L11.6437 6.63037C11.7375 6.83783 11.9367 6.97789 12.1636 6.99595L16.6801 7.35536L16.6802 7.35538C16.7129 7.35797 16.7441 7.37007 16.7698 7.39014C16.7956 7.4102 16.8149 7.43733 16.8254 7.46812C16.8358 7.49892 16.837 7.53208 16.8288 7.56352C16.8206 7.59492 16.8033 7.62329 16.7791 7.64511L2.29028 7.63994ZM10.2588 2.04962L12.2132 6.37292L10.2588 2.04962Z" stroke="#C0BEFF" stroke-width="1.25" stroke-linejoin="round"/>
</svg>
