<svg width="171" height="58" viewBox="0 0 171 58" fill="none" xmlns="http://www.w3.org/2000/svg">
<path d="M66.68 35.36C64.98 35.36 63.47 35.01 62.15 34.31C60.85 33.61 59.82 32.62 59.06 31.34C58.32 30.04 57.95 28.5 57.95 26.72V14H62.24V26.99C62.24 27.83 62.42 28.6 62.78 29.3C63.14 29.98 63.65 30.53 64.31 30.95C64.99 31.37 65.78 31.58 66.68 31.58C67.6 31.58 68.39 31.37 69.05 30.95C69.71 30.53 70.22 29.98 70.58 29.3C70.94 28.6 71.12 27.83 71.12 26.99V14H75.41V26.72C75.41 28.5 75.03 30.04 74.27 31.34C73.53 32.62 72.5 33.61 71.18 34.31C69.88 35.01 68.38 35.36 66.68 35.36ZM79.9074 35V26.21C79.9074 24.95 80.1974 23.8 80.7774 22.76C81.3774 21.72 82.2374 20.89 83.3574 20.27C84.4774 19.65 85.8174 19.34 87.3774 19.34C88.9574 19.34 90.2974 19.65 91.3974 20.27C92.5174 20.89 93.3674 21.72 93.9474 22.76C94.5474 23.8 94.8474 24.95 94.8474 26.21V35H90.7374V26.21C90.7374 25.27 90.4074 24.48 89.7474 23.84C89.1074 23.18 88.3174 22.85 87.3774 22.85C86.4574 22.85 85.6674 23.18 85.0074 23.84C84.3474 24.48 84.0174 25.27 84.0174 26.21V35H79.9074ZM99.3453 35V19.7H103.485V35H99.3453ZM101.415 17.87C100.715 17.87 100.105 17.62 99.5853 17.12C99.0853 16.6 98.8353 15.99 98.8353 15.29C98.8353 14.59 99.0853 13.99 99.5853 13.49C100.105 12.97 100.715 12.71 101.415 12.71C102.115 12.71 102.715 12.97 103.215 13.49C103.735 13.99 103.995 14.59 103.995 15.29C103.995 15.99 103.735 16.6 103.215 17.12C102.715 17.62 102.115 17.87 101.415 17.87ZM114.633 35.36C113.733 35.36 112.913 35.12 112.173 34.64C111.453 34.16 110.953 33.53 110.673 32.75L106.293 19.7H110.763L114.303 31.07C114.363 31.23 114.483 31.31 114.663 31.31C114.843 31.31 114.963 31.23 115.023 31.07L118.593 19.7H122.973L118.593 32.72C118.313 33.5 117.803 34.14 117.063 34.64C116.343 35.12 115.533 35.36 114.633 35.36ZM132.953 35C131.213 35 129.693 34.67 128.393 34.01C127.113 33.33 126.113 32.41 125.393 31.25C124.693 30.09 124.343 28.79 124.343 27.35C124.343 25.73 124.673 24.32 125.333 23.12C125.993 21.92 126.893 20.99 128.033 20.33C129.173 19.67 130.463 19.34 131.903 19.34C133.623 19.34 135.013 19.7 136.073 20.42C137.153 21.14 137.943 22.11 138.443 23.33C138.943 24.53 139.193 25.87 139.193 27.35C139.193 27.55 139.183 27.79 139.163 28.07C139.143 28.33 139.113 28.53 139.073 28.67H128.723C128.943 29.59 129.433 30.29 130.193 30.77C130.973 31.25 131.913 31.49 133.013 31.49H137.273V35H132.953ZM128.693 25.91H135.083C135.003 24.93 134.693 24.16 134.153 23.6C133.633 23.02 132.893 22.73 131.933 22.73C130.913 22.73 130.143 23.06 129.623 23.72C129.103 24.36 128.793 25.09 128.693 25.91ZM130.193 17.69L132.713 14H136.583L134.063 17.69H130.193Z" fill="url(#paint0_linear)"/>
<path d="M40.1443 9.24539C39.0653 9.24662 38.0308 9.6755 37.2681 10.4379C36.5052 11.2004 36.076 12.2341 36.075 13.3123V23.4422C36.0864 24.1672 35.9535 24.887 35.6838 25.56C35.4141 26.233 35.0133 26.8456 34.5044 27.3623C33.9954 27.879 33.3887 28.2893 32.7196 28.5693C32.0505 28.8494 31.3323 28.9936 30.6068 28.9936C29.8814 28.9936 29.1632 28.8494 28.4941 28.5693C27.825 28.2893 27.2183 27.879 26.7094 27.3623C26.2005 26.8456 25.7995 26.233 25.5299 25.56C25.2602 24.887 25.1272 24.1672 25.1387 23.4422V13.3123C25.1387 12.2338 24.71 11.1995 23.9468 10.4369C23.1837 9.67425 22.1486 9.24582 21.0693 9.24582C19.9901 9.24582 18.955 9.67425 18.1919 10.4369C17.4287 11.1995 17 12.2338 17 13.3123V24.5148C17 26.3004 17.3519 28.0686 18.0358 29.7184C18.7196 31.3681 19.7218 32.867 20.9854 34.1297C22.2489 35.3923 23.7489 36.3939 25.3997 37.0773C27.0506 37.7605 28.82 38.1122 30.6068 38.1122C32.3937 38.1122 34.1631 37.7605 35.814 37.0773C37.4649 36.3939 38.9648 35.3923 40.2283 34.1297C41.4919 32.867 42.4942 31.3681 43.1778 29.7184C43.8617 28.0686 44.2137 26.3004 44.2137 24.5148V13.3123C44.2125 12.2341 43.7835 11.2004 43.0206 10.4379C42.2577 9.6755 41.2232 9.24662 40.1443 9.24539ZM42.4333 24.514C42.4333 27.6485 41.1873 30.6544 38.9694 32.8707C36.7515 35.087 33.7434 36.3323 30.6068 36.3323C27.4703 36.3323 24.4622 35.087 22.2443 32.8707C20.0264 30.6544 18.7804 27.6485 18.7804 24.514V13.3123C18.7856 12.7091 19.029 12.1323 19.4577 11.7076C19.8864 11.2829 20.4657 11.0446 21.0693 11.0446C21.673 11.0446 22.2523 11.2829 22.681 11.7076C23.1097 12.1323 23.3531 12.7091 23.3583 13.3123V23.4422C23.3583 25.3634 24.122 27.2058 25.4814 28.5642C26.8407 29.9227 28.6844 30.6857 30.6068 30.6857C32.5293 30.6857 34.373 29.9227 35.7324 28.5642C37.0916 27.2058 37.8554 25.3634 37.8554 23.4422V13.3123C37.8554 12.7057 38.0964 12.1239 38.5258 11.6949C38.9551 11.2659 39.5372 11.0249 40.1443 11.0249C40.7515 11.0249 41.3336 11.2659 41.7629 11.6949C42.1921 12.1239 42.4333 12.7057 42.4333 13.3123V24.514Z" fill="url(#paint1_linear)"/>
<path d="M29.7167 11.3187V23.0462C29.7167 23.2822 29.8105 23.5085 29.9774 23.6753C30.1444 23.8422 30.3708 23.9358 30.6069 23.9358C30.843 23.9358 31.0694 23.8422 31.2363 23.6753C31.4033 23.5085 31.4971 23.2822 31.4971 23.0462V11.3187C32.6464 11.0974 33.6719 10.456 34.3734 9.51967C35.0748 8.58334 35.4019 7.41937 35.2907 6.25501C35.1794 5.09065 34.638 4.00954 33.7719 3.22275C32.9058 2.43596 31.7773 2 30.6069 2C29.4364 2 28.308 2.43596 27.4419 3.22275C26.5758 4.00954 26.0343 5.09065 25.9231 6.25501C25.8119 7.41937 26.1389 8.58334 26.8404 9.51967C27.5419 10.456 28.5674 11.0974 29.7167 11.3187ZM30.6069 3.78103C31.1854 3.78103 31.7509 3.95246 32.2319 4.27363C32.7129 4.59481 33.0878 5.0513 33.3091 5.5854C33.5305 6.11949 33.5884 6.70719 33.4756 7.27418C33.3627 7.84117 33.0841 8.36196 32.675 8.77073C32.2659 9.17949 31.7448 9.45785 31.1774 9.57061C30.61 9.68338 30.0219 9.62546 29.4875 9.40422C28.953 9.18296 28.4962 8.80831 28.1748 8.32762C27.8535 7.84694 27.682 7.28182 27.682 6.70372C27.6829 5.92883 27.9913 5.18592 28.5397 4.638C29.088 4.09009 29.8314 3.78188 30.6069 3.78103Z" fill="url(#paint2_linear)"/>
<defs>
<linearGradient id="paint0_linear" x1="62.5" y1="2.40661e-06" x2="138" y2="48" gradientUnits="userSpaceOnUse">
<stop stop-color="white" stop-opacity="0.69"/>
<stop offset="1" stop-color="#DEDDFF" stop-opacity="0.7"/>
</linearGradient>
<linearGradient id="paint1_linear" x1="17" y1="23.6789" x2="44.2137" y2="23.6789" gradientUnits="userSpaceOnUse">
<stop stop-color="#EC441E"/>
<stop offset="1" stop-color="#EE2A4A"/>
</linearGradient>
<linearGradient id="paint2_linear" x1="25.9018" y1="12.9679" x2="35.312" y2="12.9679" gradientUnits="userSpaceOnUse">
<stop stop-color="#EC441E"/>
<stop offset="1" stop-color="#EE2A4A"/>
</linearGradient>
</defs>
</svg>
