<svg width="28" height="37" viewBox="0 0 28 37" fill="none" xmlns="http://www.w3.org/2000/svg">
<path d="M23.144 7.24539C22.0651 7.24662 21.0306 7.6755 20.2679 8.43795C19.5049 9.2004 19.0758 10.2341 19.0748 11.3123V21.4422C19.0862 22.1672 18.9533 22.887 18.6836 23.56C18.4139 24.233 18.013 24.8456 17.5041 25.3623C16.9952 25.879 16.3885 26.2893 15.7194 26.5693C15.0502 26.8494 14.332 26.9936 13.6066 26.9936C12.8812 26.9936 12.163 26.8494 11.4938 26.5693C10.8247 26.2893 10.218 25.879 9.70914 25.3623C9.20023 24.8456 8.79929 24.233 8.52963 23.56C8.25997 22.887 8.12699 22.1672 8.13844 21.4422V11.3123C8.13844 10.2338 7.70971 9.19949 6.94656 8.43687C6.18341 7.67425 5.14835 7.24582 4.0691 7.24582C2.98985 7.24582 1.95479 7.67425 1.19164 8.43687C0.428486 9.19949 -0.000244141 10.2338 -0.000244141 11.3123V22.5148C-0.000244194 24.3004 0.351705 26.0686 1.03551 27.7184C1.71932 29.3681 2.7216 30.867 3.98511 32.1297C5.24861 33.3923 6.74863 34.3939 8.39948 35.0773C10.0503 35.7605 11.8197 36.1122 13.6066 36.1122C15.3935 36.1122 17.1629 35.7605 18.8138 35.0773C20.4646 34.3939 21.9646 33.3923 23.228 32.1297C24.4916 30.867 25.4939 29.3681 26.1776 27.7184C26.8615 26.0686 27.2134 24.3004 27.2134 22.5148V11.3123C27.2122 10.2341 26.7833 9.20038 26.0204 8.43795C25.2574 7.6755 24.223 7.24662 23.144 7.24539ZM25.4331 22.514C25.4331 25.6485 24.187 28.6544 21.9692 30.8707C19.7513 33.087 16.7432 34.3323 13.6066 34.3323C10.47 34.3323 7.46191 33.087 5.24401 30.8707C3.02612 28.6544 1.78011 25.6485 1.78011 22.514V11.3123C1.78532 10.7091 2.02876 10.1323 2.45748 9.70761C2.88618 9.28288 3.46541 9.04458 4.0691 9.04458C4.67278 9.04458 5.25202 9.28288 5.68072 9.70761C6.10942 10.1323 6.35288 10.7091 6.35809 11.3123V21.4422C6.35809 23.3634 7.12177 25.2058 8.48112 26.5642C9.84048 27.9227 11.6842 28.6857 13.6066 28.6857C15.529 28.6857 17.3728 27.9227 18.7321 26.5642C20.0913 25.2058 20.8551 23.3634 20.8551 21.4422V11.3123C20.8551 10.7057 21.0962 10.1239 21.5255 9.69491C21.9548 9.26593 22.537 9.02494 23.144 9.02494C23.7512 9.02494 24.3334 9.26593 24.7627 9.69491C25.1918 10.1239 25.4331 10.7057 25.4331 11.3123V22.514Z" fill="url(#paint0_linear)"/>
<path d="M12.7165 9.3187V21.0462C12.7165 21.2822 12.8102 21.5085 12.9772 21.6753C13.1441 21.8422 13.3705 21.9358 13.6066 21.9358C13.8427 21.9358 14.0691 21.8422 14.2361 21.6753C14.403 21.5085 14.4968 21.2822 14.4968 21.0462V9.3187C15.6461 9.09741 16.6717 8.45598 17.3731 7.51967C18.0746 6.58334 18.4017 5.41937 18.2904 4.25501C18.1792 3.09065 17.6377 2.00954 16.7716 1.22275C15.9055 0.435959 14.7771 0 13.6066 0C12.4362 0 11.3077 0.435959 10.4417 1.22275C9.57559 2.00954 9.03407 3.09065 8.92286 4.25501C8.81162 5.41937 9.13868 6.58334 9.84016 7.51967C10.5416 8.45598 11.5671 9.09741 12.7165 9.3187ZM13.6066 1.78103C14.1851 1.78103 14.7506 1.95246 15.2316 2.27363C15.7126 2.59481 16.0875 3.0513 16.3089 3.5854C16.5303 4.11949 16.5882 4.70719 16.4753 5.27418C16.3624 5.84117 16.0838 6.36196 15.6748 6.77073C15.2657 7.17949 14.7445 7.45785 14.1771 7.57061C13.6098 7.68338 13.0217 7.62546 12.4872 7.40422C11.9528 7.18296 11.496 6.80831 11.1746 6.32762C10.8532 5.84694 10.6817 5.28182 10.6817 4.70372C10.6826 3.92883 10.9911 3.18592 11.5394 2.638C12.0878 2.09009 12.8312 1.78188 13.6066 1.78103Z" fill="url(#paint1_linear)"/>
<defs>
<linearGradient id="paint0_linear" x1="-0.000244141" y1="21.6789" x2="27.2134" y2="21.6789" gradientUnits="userSpaceOnUse">
<stop stop-color="#EC441E"/>
<stop offset="1" stop-color="#EE2A4A"/>
</linearGradient>
<linearGradient id="paint1_linear" x1="8.90154" y1="10.9679" x2="18.3117" y2="10.9679" gradientUnits="userSpaceOnUse">
<stop stop-color="#EC441E"/>
<stop offset="1" stop-color="#EE2A4A"/>
</linearGradient>
</defs>
</svg>
